<svg width="95" height="58" viewBox="0 0 95 58" fill="none" xmlns="http://www.w3.org/2000/svg">
<g filter="url(#filter0_d_3138_4612)">
<path d="M11.6506 40.295C9.63508 40.295 7.81621 39.8648 6.19398 39.0045C4.59632 38.1443 3.33049 36.9153 2.39648 35.3176C1.48705 33.72 1.03233 31.852 1.03233 29.7136C1.03233 27.5998 1.49934 25.744 2.43335 24.1464C3.36736 22.5241 4.64548 21.2829 6.26771 20.4226C7.88995 19.5623 9.70881 19.1322 11.7243 19.1322C13.7398 19.1322 15.5587 19.5623 17.1809 20.4226C18.8031 21.2829 20.0813 22.5241 21.0153 24.1464C21.9493 25.744 22.4163 27.5998 22.4163 29.7136C22.4163 31.8274 21.937 33.6954 20.9784 35.3176C20.0444 36.9153 18.754 38.1443 17.1072 39.0045C15.4849 39.8648 13.6661 40.295 11.6506 40.295ZM11.6506 34.8384C12.855 34.8384 13.875 34.3959 14.7107 33.5111C15.571 32.6262 16.0011 31.3604 16.0011 29.7136C16.0011 28.0668 15.5833 26.8009 14.7476 25.9161C13.9364 25.0312 12.9287 24.5888 11.7243 24.5888C10.4953 24.5888 9.47531 25.0312 8.66419 25.9161C7.85308 26.7764 7.44752 28.0422 7.44752 29.7136C7.44752 31.3604 7.84079 32.6262 8.62732 33.5111C9.43844 34.3959 10.4462 34.8384 11.6506 34.8384ZM36.453 19.2059C38.8617 19.2059 40.7789 19.9925 42.2045 21.5655C43.6547 23.114 44.3798 25.2524 44.3798 27.9807V40H38.1121V28.8287C38.1121 27.4523 37.7557 26.3831 37.0429 25.6211C36.3301 24.8592 35.3715 24.4782 34.1671 24.4782C32.9627 24.4782 32.0041 24.8592 31.2913 25.6211C30.5785 26.3831 30.2221 27.4523 30.2221 28.8287V40H23.9176V19.4271H30.2221V22.1554C30.8612 21.246 31.7215 20.5332 32.803 20.017C33.8844 19.4763 35.1011 19.2059 36.453 19.2059ZM66.3105 29.3818C66.3105 29.9717 66.2736 30.5861 66.1999 31.2252H51.9316C52.0299 32.5033 52.4355 33.4865 53.1483 34.1747C53.8856 34.8384 54.7828 35.1702 55.8397 35.1702C57.4128 35.1702 58.5065 34.5065 59.121 33.1793H65.8312C65.4871 34.5311 64.8603 35.7478 63.9509 36.8293C63.066 37.9108 61.9476 38.7587 60.5958 39.3732C59.2439 39.9877 57.7323 40.295 56.0609 40.295C54.0454 40.295 52.2511 39.8648 50.678 39.0045C49.105 38.1443 47.876 36.9153 46.9912 35.3176C46.1063 33.72 45.6639 31.852 45.6639 29.7136C45.6639 27.5752 46.094 25.7072 46.9543 24.1095C47.8391 22.5118 49.0681 21.2829 50.6412 20.4226C52.2142 19.5623 54.0208 19.1322 56.0609 19.1322C58.0518 19.1322 59.8215 19.55 61.37 20.3857C62.9185 21.2214 64.1229 22.4135 64.9832 23.962C65.868 25.5105 66.3105 27.3171 66.3105 29.3818ZM59.8584 27.7227C59.8584 26.6412 59.4897 25.7809 58.7523 25.1418C58.015 24.5028 57.0932 24.1832 55.9872 24.1832C54.9303 24.1832 54.0331 24.4905 53.2957 25.105C52.5829 25.7194 52.1405 26.592 51.9685 27.7227H59.8584Z" fill="white"/>
<path d="M83.1949 25.4154C83.2988 25.4154 83.4026 25.4154 83.5058 25.4154C83.7869 25.4147 84.0681 25.4181 84.3493 25.4208C84.6433 25.4242 84.9373 25.4242 85.2312 25.4249C85.7875 25.4262 86.3438 25.4303 86.9001 25.435C87.5339 25.4404 88.167 25.4431 88.8008 25.4451C90.1035 25.4505 91.4069 25.4586 92.7096 25.4687C92.7427 25.6305 92.7757 25.7923 92.8081 25.9542C92.8222 26.0223 92.8222 26.0223 92.8364 26.0924C92.947 26.6426 92.9901 27.1726 92.9935 27.7336C92.9935 27.7936 92.9942 27.8543 92.9942 27.9163C92.9948 28.0431 92.9955 28.1705 92.9955 28.2979C92.9962 28.4874 92.9982 28.6776 93.0002 28.867C93.007 29.9654 92.895 31.0362 92.5876 32.0934C92.57 32.1555 92.5525 32.2168 92.535 32.2802C92.2599 33.2296 91.8897 34.1028 91.4285 34.9759C91.3752 35.0784 91.3752 35.0784 91.3206 35.183C89.7961 38.0452 87.1678 40.2913 84.0621 41.2602C82.8814 41.6047 81.6906 41.8124 80.4587 41.803C80.3704 41.803 80.2821 41.8023 80.1904 41.8016C78.6389 41.7848 77.1474 41.5366 75.6714 41.0491C75.5763 41.0174 75.5763 41.0174 75.4792 40.9851C74.9749 40.8118 74.5224 40.5967 74.0322 40.3701C74.0322 38.5011 74.0322 36.632 74.0322 34.7062C74.5905 35.1256 74.5905 35.1256 74.8414 35.3805C76.3659 36.5733 78.1453 37.2314 80.0838 37.2226C80.1668 37.222 80.2497 37.222 80.3353 37.2213C80.955 37.2132 81.5234 37.1613 82.1235 36.9988C82.1667 36.988 82.2105 36.9765 82.255 36.9651C83.6008 36.6111 85.3074 35.8309 86.1017 34.6388C86.1462 34.6388 86.1907 34.6388 86.2366 34.6388C86.2534 34.6017 86.2696 34.5646 86.2865 34.5269C86.389 34.3367 86.5157 34.1803 86.6499 34.0111C87.0019 33.5559 87.2608 33.0624 87.5177 32.5486C87.5703 32.4528 87.5703 32.4528 87.6236 32.355C87.7476 32.0847 87.8198 31.8123 87.8926 31.525C87.9068 31.4717 87.9209 31.4185 87.9358 31.3639C88.0423 30.9505 88.1151 30.5439 88.192 30.1212C85.1213 30.1212 82.0507 30.1212 78.887 30.1212C79.0097 29.8151 79.1196 29.6418 79.3212 29.3882C79.3819 29.3107 79.4433 29.2332 79.504 29.1556C79.5512 29.0949 79.5512 29.0949 79.5997 29.0329C79.7622 28.8225 79.9186 28.6081 80.0757 28.3937C80.1068 28.3505 80.1385 28.3074 80.1708 28.2636C80.2598 28.1408 80.3488 28.0188 80.4378 27.8961C80.483 27.8347 80.5275 27.7734 80.574 27.71C80.8599 27.3182 81.1438 26.9244 81.4283 26.5307C81.4836 26.4545 81.4836 26.4545 81.5403 26.3763C81.576 26.327 81.6117 26.2771 81.6482 26.2266C81.6954 26.1612 81.6953 26.1612 81.7439 26.0944C81.8666 25.9333 81.8666 25.9333 81.9664 25.6986C82.2516 25.3062 82.758 25.4073 83.1949 25.4154Z" fill="white"/>
<path d="M88.5978 18.8716C88.8358 19.0766 89.0624 19.2931 89.2869 19.5129C89.3409 19.5655 89.3409 19.5655 89.3968 19.6187C90.8034 20.9767 91.8465 22.6017 92.5234 24.4351C92.5234 24.4796 92.5234 24.5241 92.5234 24.5699C91.8768 24.5935 91.2302 24.6117 90.5835 24.6225C90.2828 24.6279 89.9828 24.6347 89.6827 24.6461C89.3921 24.6576 89.1022 24.6637 88.8116 24.6657C88.7017 24.6677 88.5911 24.6717 88.4812 24.6771C87.6417 24.7169 87.347 24.4701 87.347 24.4701C87.347 24.4701 86.9566 23.9584 86.7935 23.6745C86.6573 23.4466 86.4765 23.2571 86.2945 23.0656C86.2581 23.0272 86.2223 22.9888 86.1846 22.949C84.832 21.5499 82.8665 20.6787 80.9165 20.643C78.4884 20.6335 76.498 21.5964 74.7853 23.2848C74.5938 23.4709 74.5938 23.4709 74.4529 23.6934C74.4003 23.7121 74.434 23.6934 74.3666 23.7458C74.3329 23.7795 74.7374 23.3314 74.198 23.9481C74.0491 24.1183 74.0969 24.1559 73.9762 24.313C73.4786 25.0156 73.1212 25.791 72.8724 26.6137C72.8562 26.6662 72.8407 26.7182 72.8245 26.7721C72.5514 27.735 72.5454 28.6749 72.5474 29.6674C72.5474 29.8205 72.5467 29.9736 72.5467 30.1266C72.546 30.4543 72.546 30.7827 72.546 31.1104C72.546 31.6296 72.5454 32.1488 72.544 32.668C72.5427 33.3962 72.5413 34.1244 72.5407 34.8526C72.5407 34.9214 72.5407 34.9214 72.54 34.9922C72.5393 35.6469 72.5393 36.3009 72.5393 36.9557C72.5386 37.0015 72.5386 37.048 72.5386 37.0952C72.5386 37.1418 72.5386 37.1876 72.5386 37.2348C72.5386 38.0048 72.5373 39.7283 72.5353 40.4984C72.5339 41.0142 72.5339 41.53 72.5346 42.0451C72.5346 42.3668 72.5339 42.6877 72.5326 43.0087C72.5319 43.157 72.5319 43.3054 72.5326 43.4537C72.5366 44.4348 72.5184 45.2607 71.8232 46.022C71.2885 46.5331 70.0175 46.7145 70.0175 46.7145C70.0175 46.7145 68.878 46.3902 68.4519 45.9546C68.0062 45.3693 67.8915 44.7955 67.8949 44.0767C67.8949 44.012 67.8949 43.9466 67.8942 43.8798C67.8936 43.6634 67.8942 43.4463 67.8949 43.2298C67.8942 43.0741 67.8942 42.9183 67.8942 42.7626C67.8936 42.3398 67.8936 41.9177 67.8942 41.4949C67.8942 41.0519 67.8942 40.6089 67.8936 40.1659C67.8936 39.3737 67.8942 37.6272 67.8949 36.835C67.8956 36.1182 67.8949 35.4021 67.8942 34.6861C67.8936 33.852 67.8936 33.0186 67.8942 32.1852C67.8942 31.7449 67.8942 31.3039 67.8936 30.8636C67.8936 30.4489 67.8936 30.0336 67.8942 29.6189C67.8949 29.4672 67.8942 29.3161 67.8942 29.1644C67.8922 28.095 67.9401 27.0668 68.199 26.0237C68.2132 25.9643 68.228 25.9043 68.2435 25.843C68.9967 22.8714 70.8024 20.1487 73.3066 18.3666C73.3457 18.3383 73.3855 18.31 73.4266 18.2803C75.2492 16.9864 77.1817 16.3964 79.3751 16.0741C79.4216 16.0667 79.4681 16.0599 79.516 16.0525C82.7256 15.5967 86.1502 16.8293 88.5978 18.8716Z" fill="white"/>
</g>
<defs>
<filter id="filter0_d_3138_4612" x="0.665372" y="15.5911" width="93.4357" height="32.224" filterUnits="userSpaceOnUse" color-interpolation-filters="sRGB">
<feFlood flood-opacity="0" result="BackgroundImageFix"/>
<feColorMatrix in="SourceAlpha" type="matrix" values="0 0 0 0 0 0 0 0 0 0 0 0 0 0 0 0 0 0 127 0" result="hardAlpha"/>
<feOffset dx="0.366855" dy="0.366855"/>
<feGaussianBlur stdDeviation="0.366855"/>
<feComposite in2="hardAlpha" operator="out"/>
<feColorMatrix type="matrix" values="0 0 0 0 0 0 0 0 0 0 0 0 0 0 0 0 0 0 0.2 0"/>
<feBlend mode="normal" in2="BackgroundImageFix" result="effect1_dropShadow_3138_4612"/>
<feBlend mode="normal" in="SourceGraphic" in2="effect1_dropShadow_3138_4612" result="shape"/>
</filter>
</defs>
</svg>
