<?xml version="1.0" encoding="UTF-8" standalone="no"?>
<!-- Created with Inkscape (http://www.inkscape.org/) -->

<svg
   width="95"
   height="33"
   viewBox="0 0 25.135417 8.73125"
   version="1.1"
   id="svg1"
   xml:space="preserve"
   sodipodi:docname="LOGO.svg"
   inkscape:version="1.4.3 (0d15f75042, 2025-12-25)"
   xmlns:inkscape="http://www.inkscape.org/namespaces/inkscape"
   xmlns:sodipodi="http://sodipodi.sourceforge.net/DTD/sodipodi-0.dtd"
   xmlns:xlink="http://www.w3.org/1999/xlink"
   xmlns="http://www.w3.org/2000/svg"
   xmlns:svg="http://www.w3.org/2000/svg"><sodipodi:namedview
     id="namedview1"
     pagecolor="#ffffff"
     bordercolor="#000000"
     borderopacity="0.25"
     inkscape:showpageshadow="2"
     inkscape:pageopacity="0.0"
     inkscape:pagecheckerboard="0"
     inkscape:deskcolor="#d1d1d1"
     inkscape:zoom="7.0016424"
     inkscape:cx="49.559801"
     inkscape:cy="22.209075"
     inkscape:window-width="1853"
     inkscape:window-height="1011"
     inkscape:window-x="0"
     inkscape:window-y="0"
     inkscape:window-maximized="1"
     inkscape:current-layer="layer1" /><defs
     id="defs1"><linearGradient
       id="linearGradient96"><stop
         style="stop-color:#fd4703;stop-opacity:1;"
         offset="0"
         id="stop96" /><stop
         style="stop-color:#fe8b05;stop-opacity:1;"
         offset="0.16218384"
         id="stop97" /></linearGradient><linearGradient
       id="linearGradient94"><stop
         style="stop-color:#fd4703;stop-opacity:1;"
         offset="0"
         id="stop94" /><stop
         style="stop-color:#fe8b05;stop-opacity:1;"
         offset="0.59679711"
         id="stop95" /></linearGradient><linearGradient
       id="linearGradient92"><stop
         style="stop-color:#fd4703;stop-opacity:1;"
         offset="0"
         id="stop92" /><stop
         style="stop-color:#fe8b05;stop-opacity:1;"
         offset="0.68370259"
         id="stop93" /></linearGradient><linearGradient
       id="linearGradient90"><stop
         style="stop-color:#fd4703;stop-opacity:1;"
         offset="0"
         id="stop90" /><stop
         style="stop-color:#fe8b05;stop-opacity:1;"
         offset="0.78844392"
         id="stop91" /></linearGradient><linearGradient
       xlink:href="#linearGradient90"
       id="linearGradient91"
       x1="25.592857"
       y1="122.13867"
       x2="13.596926"
       y2="155.09723"
       gradientUnits="userSpaceOnUse"
       gradientTransform="matrix(0.98917129,0,0,1.02981,3.8819306,-60.152386)" /><linearGradient
       xlink:href="#linearGradient92"
       id="linearGradient93"
       x1="64.700241"
       y1="122.14497"
       x2="64.700241"
       y2="155.70683"
       gradientUnits="userSpaceOnUse"
       gradientTransform="matrix(0.98917129,0,0,1,-4.9331363,-56.855035)" /><linearGradient
       xlink:href="#linearGradient94"
       id="linearGradient95"
       x1="88.167236"
       y1="126.31998"
       x2="107.591"
       y2="154.06"
       gradientUnits="userSpaceOnUse"
       gradientTransform="matrix(0.96232494,0,0,1.02981,-0.37591045,-61.771266)" /><linearGradient
       xlink:href="#linearGradient96"
       id="linearGradient97"
       x1="132.19458"
       y1="147.52454"
       x2="154.1938"
       y2="125.5253"
       gradientUnits="userSpaceOnUse"
       gradientTransform="matrix(0.97022433,0,0,1.0835271,-1.1908772,-58.295492)" /><filter
       id="filter0_d_3138_4612"
       x="0.66537201"
       y="15.5911"
       width="93.435699"
       height="32.223999"
       filterUnits="userSpaceOnUse"
       color-interpolation-filters="sRGB"><feFlood
         flood-opacity="0"
         result="BackgroundImageFix"
         id="feFlood3" /><feColorMatrix
         in="SourceAlpha"
         type="matrix"
         values="0 0 0 0 0 0 0 0 0 0 0 0 0 0 0 0 0 0 127 0"
         result="hardAlpha"
         id="feColorMatrix3" /><feOffset
         dx="0.366855"
         dy="0.366855"
         id="feOffset3" /><feGaussianBlur
         stdDeviation="0.366855"
         id="feGaussianBlur3" /><feComposite
         in2="hardAlpha"
         operator="out"
         id="feComposite3" /><feColorMatrix
         type="matrix"
         values="0 0 0 0 0 0 0 0 0 0 0 0 0 0 0 0 0 0 0.2 0"
         id="feColorMatrix4" /><feBlend
         mode="normal"
         in2="BackgroundImageFix"
         result="effect1_dropShadow_3138_4612"
         id="feBlend4" /><feBlend
         mode="normal"
         in="SourceGraphic"
         in2="effect1_dropShadow_3138_4612"
         result="shape"
         id="feBlend5" /></filter></defs><g
     id="layer1"
     transform="matrix(0.16626296,0,0,0.14618419,-0.77307913,-8.2352535)"
     inkscape:label="LOGO"><path
       d="m 137.2281,74.817633 c 0.16533,0 0.33052,0 0.49473,0 0.44734,-0.0011 0.89483,0.0054 1.34231,0.0098 0.46787,0.0065 0.93572,0.0065 1.40343,0.0076 0.88526,0.0022 1.77053,0.0098 2.6558,0.01831 1.0086,0.0098 2.01608,0.01463 3.02467,0.01831 2.07306,0.0098 4.14723,0.02449 6.22028,0.04269 0.0527,0.292845 0.10519,0.5857 0.15675,0.878729 0.0225,0.123262 0.0225,0.123262 0.045,0.250143 0.17601,0.995838 0.2446,1.955117 0.25,2.970512 0,0.108602 9.7e-4,0.21846 9.7e-4,0.330681 9.6e-4,0.229502 0.002,0.460088 0.002,0.690684 9.7e-4,0.34298 0.004,0.687238 0.008,1.030044 0.0109,1.988066 -0.1674,3.926171 -0.65659,5.839669 -0.028,0.112395 -0.0559,0.223348 -0.0838,0.338104 -0.43779,1.718377 -1.02691,3.298842 -1.76084,4.879112 -0.0847,0.185522 -0.0847,0.185522 -0.1717,0.374846 -2.42603,5.180484 -6.60857,9.245833 -11.55083,10.999513 -1.8789,0.62354 -3.77389,0.99947 -5.73428,0.98245 -0.14051,0 -0.28102,-0.001 -0.42695,-0.002 -2.46898,-0.0305 -4.84248,-0.47965 -7.19132,-1.36202 -0.15134,-0.0574 -0.15134,-0.0574 -0.30586,-0.11584 -0.80251,-0.31364 -1.5226,-0.70297 -2.30268,-1.11312 0,-3.382811 0,-6.765821 0,-10.251441 0.88845,0.759097 0.88845,0.759097 1.28771,1.220452 2.42603,2.158928 5.25767,3.35006 8.34251,3.334132 0.13208,-0.0011 0.264,-0.0011 0.40022,-0.0022 0.98616,-0.01463 1.89068,-0.108591 2.84566,-0.402714 0.0688,-0.0195 0.13845,-0.04042 0.20926,-0.061 2.14164,-0.640733 4.85745,-2.052861 6.12145,-4.210521 0.0708,0 0.14164,0 0.21467,0 0.0268,-0.06718 0.0525,-0.134303 0.0794,-0.202533 0.16311,-0.344258 0.36474,-0.627341 0.57829,-0.933578 0.56016,-0.823903 0.97215,-1.717119 1.38098,-2.647078 0.0838,-0.173397 0.0838,-0.173397 0.16852,-0.350402 0.19733,-0.489234 0.31222,-0.982272 0.42807,-1.502278 0.0226,-0.09643 0.045,-0.192759 0.0688,-0.291577 0.16948,-0.748241 0.28534,-1.484172 0.40771,-2.249251 -4.88656,0 -9.77297,0 -14.80752,0 0.19526,-0.554029 0.37015,-0.867688 0.69097,-1.326703 0.0966,-0.140262 0.1943,-0.280536 0.2909,-0.420993 0.0751,-0.10987 0.0751,-0.10987 0.15228,-0.22208 0.25859,-0.380817 0.50749,-0.768871 0.75749,-1.156936 0.0494,-0.07823 0.0999,-0.156191 0.15133,-0.235472 0.14164,-0.222264 0.28327,-0.443076 0.4249,-0.665167 0.0719,-0.111126 0.14274,-0.222079 0.21674,-0.336825 0.45497,-0.709147 0.90676,-1.421913 1.35948,-2.134494 0.088,-0.137922 0.088,-0.137922 0.17823,-0.279464 0.0569,-0.08928 0.11364,-0.17954 0.17172,-0.270946 0.0751,-0.118376 0.0749,-0.118376 0.15229,-0.239276 0.19526,-0.291588 0.19526,-0.291588 0.35408,-0.716384 0.45385,-0.710231 1.25971,-0.527245 1.95497,-0.512585 z"
       fill="#ffffff"
       id="path2"
       style="fill:url(#linearGradient97);fill-opacity:1;stroke-width:1.69713" /><path
       d="m 145.33729,61.776538 c 0.37318,0.34244 0.72851,0.70409 1.08053,1.07125 0.0847,0.0879 0.0847,0.0879 0.17233,0.17674 2.2056,2.26845 3.84122,4.98291 4.90262,8.04549 0,0.0743 0,0.14867 0,0.22517 -1.01389,0.0394 -2.02778,0.0698 -3.04184,0.0879 -0.4715,0.009 -0.94191,0.0204 -1.41248,0.0394 -0.45567,0.0192 -0.91025,0.0294 -1.36592,0.0327 -0.17232,0.003 -0.34575,0.01 -0.51808,0.019 -1.31637,0.0665 -1.77846,-0.34578 -1.77846,-0.34578 0,0 -0.61216,-0.85476 -0.86791,-1.329 -0.21357,-0.38069 -0.49707,-0.69724 -0.78245,-1.01713 -0.0571,-0.0641 -0.11321,-0.12828 -0.17233,-0.19477 -2.12092,-2.33711 -5.2029,-3.79239 -8.26058,-3.85203 -3.80734,-0.0159 -6.92836,1.5926 -9.61393,4.41296 -0.30029,0.31087 -0.30029,0.31087 -0.52122,0.68255 -0.0825,0.0312 -0.0297,0 -0.13533,0.0875 -0.0529,0.0563 0.58143,-0.69223 -0.26437,0.33793 -0.23348,0.2843 -0.15853,0.34711 -0.34779,0.60954 -0.78025,1.17365 -1.34067,2.4689 -1.7308,3.84317 -0.0254,0.0877 -0.0497,0.17456 -0.0752,0.2646 -0.42823,1.60846 -0.43763,3.17851 -0.4345,4.83642 0,0.25574 -9.5e-4,0.51148 -9.5e-4,0.76706 -9.5e-4,0.5474 -9.5e-4,1.09597 -9.5e-4,1.64338 0,0.86729 -9.4e-4,1.73458 -0.003,2.60187 -0.002,1.21641 -0.004,2.43282 -0.005,3.64923 0,0.11493 0,0.11493 -9.5e-4,0.2332 -9.6e-4,1.09363 -9.6e-4,2.1861 -9.6e-4,3.2799 -9.5e-4,0.0765 -9.5e-4,0.15418 -9.5e-4,0.23303 0,0.0778 0,0.15434 0,0.23319 0,1.28624 -0.002,4.16523 -0.005,5.451635 -0.002,0.86161 -0.002,1.72322 -9.6e-4,2.583657 0,0.53738 -9.5e-4,1.07342 -0.003,1.60963 -9.6e-4,0.24773 -9.6e-4,0.49562 0,0.74335 0.007,1.63886 -0.0222,3.01848 -1.11237,4.29018 -0.83843,0.85376 -2.83141,1.15678 -2.83141,1.15678 0,0 -1.78677,-0.54172 -2.45491,-1.26937 -0.69887,-0.9777 -0.87873,-1.9362 -0.8734,-3.13691 0,-0.10808 0,-0.21732 -9.5e-4,-0.32891 -9.3e-4,-0.36148 0,-0.72413 9.5e-4,-1.08578 -9.5e-4,-0.26009 -9.5e-4,-0.52034 -9.5e-4,-0.78043 -9.3e-4,-0.70626 -9.3e-4,-1.41135 0,-2.117607 0,-0.74001 0,-1.48001 -9.3e-4,-2.22001 0,-1.323315 9.3e-4,-4.240735 0.002,-5.564055 9.6e-4,-1.19737 0,-2.39357 -9.5e-4,-3.5896 -9.4e-4,-1.39331 -9.4e-4,-2.78546 0,-4.1776 0,-0.73549 0,-1.47215 -9.4e-4,-2.20765 0,-0.69273 0,-1.38646 9.4e-4,-2.07919 9.5e-4,-0.25341 0,-0.50581 0,-0.75921 -0.003,-1.78637 0.072,-3.50391 0.47794,-5.24635 0.0222,-0.0992 0.0455,-0.19945 0.0698,-0.30184 1.18104,-4.96387 4.01245,-9.51197 7.93912,-12.48886 0.0613,-0.0473 0.12372,-0.0945 0.18816,-0.14416 2.85791,-2.16138 5.88815,-3.14693 9.32748,-3.68531 0.073,-0.0124 0.14582,-0.0237 0.22093,-0.0361 5.03277,-0.76138 10.40267,1.2976 14.24059,4.70913 z"
       fill="#ffffff"
       id="path3"
       style="fill:#07c9da;fill-opacity:1;stroke-width:1.61842" /><path
       d="m 110.10986,82.027007 c 0,1.014764 -0.0582,2.071679 -0.17457,3.171083 H 87.414271 c 0.155157,2.198624 0.795355,3.889963 1.920433,5.073823 1.163752,1.141719 2.579887,1.712491 4.248093,1.712491 2.482972,0 4.209267,-1.141719 5.179189,-3.424808 h 10.591344 c -0.54313,2.325404 -1.53246,4.418421 -2.96785,6.278844 -1.39672,1.860435 -3.162,3.319016 -5.29568,4.376106 -2.133828,1.057084 -4.519734,1.585714 -7.157862,1.585714 -3.181256,0 -6.013369,-0.74005 -8.496342,-2.219964 -2.482815,-1.479744 -4.422662,-3.593913 -5.819226,-6.342332 -1.396722,-2.748243 -2.095004,-5.961632 -2.095004,-9.640175 0,-3.678553 0.678867,-6.891942 2.036761,-9.64036 1.396564,-2.748419 3.33641,-4.862413 5.819385,-6.342322 2.482815,-1.47992 5.334341,-2.219797 8.554426,-2.219797 3.142425,0 5.93571,0.718715 8.379862,2.156319 2.44415,1.437594 4.34516,3.488286 5.70305,6.152065 1.39657,2.663778 2.09501,5.771549 2.09501,9.323313 z M 99.925903,79.17297 c 0,-1.860434 -0.58196,-3.340343 -1.745877,-4.439747 -1.163749,-1.09923 -2.618712,-1.649015 -4.364416,-1.649015 -1.668206,0 -3.084342,0.528633 -4.24825,1.585712 -1.125079,1.056915 -1.823362,2.557987 -2.094846,4.50305 z"
       style="fill:url(#linearGradient95);stroke-width:1.64777"
       id="path1" /><path
       d="m 62.80505,64.70326 c 3.907941,0 7.01846,1.31396 9.331393,3.94156 2.352845,2.58667 3.529268,6.15873 3.529268,10.71619 V 99.43849 H 65.496819 V 80.77754 c 0,-2.29919 -0.578233,-4.08522 -1.7347,-5.3581 -1.156467,-1.2727 -2.711726,-1.90914 -4.665777,-1.90914 -1.954053,0 -3.509312,0.63644 -4.665779,1.90914 -1.156467,1.27288 -1.7347,3.05891 -1.7347,5.3581 V 99.43849 H 42.467266 V 65.07276 h 10.228597 v 4.55745 c 1.036894,-1.51909 2.432668,-2.70978 4.187325,-3.57206 1.754493,-0.90321 3.728501,-1.35489 5.921862,-1.35489 z"
       style="fill:url(#linearGradient93);stroke-width:1.64625"
       id="path1-2" /><path
       d="m 23.145039,100.80025 c -3.270036,0 -6.221022,-0.74004 -8.852974,-2.219964 -2.592086,-1.479744 -4.6458045,-3.593913 -6.1611683,-6.342322 -1.4754846,-2.748243 -2.213235,-5.961642 -2.213235,-9.640185 0,-3.636229 0.7576901,-6.828629 2.2730539,-9.576873 1.5153638,-2.790734 3.5890204,-4.92588 6.2209724,-6.4058 2.631967,-1.479919 5.582937,-2.219786 8.852924,-2.219786 3.270003,0 6.221037,0.739867 8.852939,2.219786 2.631903,1.47992 4.705691,3.615066 6.221038,6.4058 1.515348,2.748244 2.273022,5.940644 2.273022,9.576873 0,3.636228 -0.77763,6.849616 -2.33289,9.640185 -1.515347,2.748409 -3.608928,4.862578 -6.280743,6.342322 -2.632064,1.479924 -5.582936,2.219964 -8.852939,2.219964 z m 0,-9.386628 c 1.954052,0 3.608929,-0.761194 4.964792,-2.283264 1.395774,-1.522234 2.09358,-3.699706 2.09358,-6.532579 0,-2.832884 -0.677851,-5.01051 -2.033713,-6.53258 -1.316114,-1.522234 -2.951034,-2.283264 -4.905086,-2.283264 -1.993964,0 -3.648825,0.76103 -4.964808,2.283264 -1.315968,1.47992 -1.97396,3.657381 -1.97396,6.53258 0,2.832873 0.638052,5.010345 1.914141,6.532579 1.315984,1.52207 2.951002,2.283264 4.905054,2.283264 z"
       style="fill:url(#linearGradient91);stroke-width:1.67061"
       id="path1-6" /><g
       style="fill:none"
       id="g98"
       transform="matrix(1.6806311,0,0,1.6990294,-3.968006,73.48173)" /></g></svg>
